<?xml version="1.0" standalone="no"?>
<!DOCTYPE svg PUBLIC "-//W3C//DTD SVG 20010904//EN"
 "http://www.w3.org/TR/2001/REC-SVG-20010904/DTD/svg10.dtd">
<svg version="1.0" xmlns="http://www.w3.org/2000/svg"
 width="200.000000pt" height="200.000000pt" viewBox="0 0 200.000000 200.000000"
 preserveAspectRatio="xMidYMid meet">

<g transform="translate(0.000000,200.000000) scale(0.100000,-0.100000)"
fill="#000000" stroke="none">
<path d="M908 1986 c-84 -23 -137 -80 -154 -165 -4 -21 -18 -38 -42 -53 l-35
-22 41 -20 42 -20 0 -158 0 -158 -42 -21 -43 -22 43 -20 42 -21 0 -206 c0
-237 -4 -250 -70 -250 -45 0 -70 26 -70 72 0 22 8 32 42 49 l43 22 -43 20 -42
21 0 72 c0 86 -20 148 -63 192 -90 93 -221 48 -262 -90 -8 -28 -15 -66 -15
-83 0 -27 -6 -34 -41 -51 l-41 -20 41 -18 41 -19 0 -129 0 -128 -35 -17 c-19
-9 -35 -20 -35 -23 0 -4 17 -15 37 -24 23 -11 49 -35 66 -62 56 -87 168 -139
339 -157 l108 -11 0 -61 0 -61 -42 -21 -43 -20 42 -22 42 -21 3 -103 3 -102
60 -21 c114 -41 251 -39 352 6 42 18 43 20 43 67 0 48 1 50 42 70 l43 20 -43
22 -42 21 0 115 0 115 35 17 c19 9 35 20 35 23 0 3 -16 14 -35 23 -35 16 -35
17 -35 80 l0 64 83 6 c234 16 377 99 394 226 5 37 11 45 47 63 l41 21 -43 20
-42 21 0 117 0 117 30 12 c45 18 45 27 3 49 -33 16 -40 26 -50 71 -18 76 -49
119 -101 142 -77 34 -148 3 -194 -86 -19 -35 -23 -63 -27 -203 -7 -181 -12
-197 -73 -195 -39 1 -68 32 -68 73 0 24 7 32 42 50 l42 21 -37 19 -37 19 0
170 0 170 35 17 c19 9 35 20 35 23 0 4 -17 14 -39 22 l-38 15 -5 89 c-7 142
-63 218 -179 243 -61 13 -71 13 -131 -3z"/>
</g>
</svg>
