<?xml version="1.0" standalone="no"?>
<!DOCTYPE svg PUBLIC "-//W3C//DTD SVG 20010904//EN"
 "http://www.w3.org/TR/2001/REC-SVG-20010904/DTD/svg10.dtd">
<svg version="1.0" xmlns="http://www.w3.org/2000/svg"
 width="1500.000000pt" height="375.000000pt" viewBox="0 0 1500.000000 375.000000"
 preserveAspectRatio="xMidYMid meet">
<metadata>
Created by potrace 1.16, written by Peter Selinger 2001-2019
</metadata>
<g transform="translate(0.000000,375.000000) scale(0.100000,-0.100000)"
fill="#000000" stroke="none">
<path d="M0 1875 l0 -1875 7500 0 7500 0 0 1875 0 1875 -7500 0 -7500 0 0
-1875z m14983 1775 c4 0 7 -25 7 -55 l0 -55 -7490 0 -7490 0 0 53 c0 30 2 56
4 58 3 3 14920 3 14969 -1z m-14215 -1804 l3 -66 -275 0 -274 0 -7 28 c-7 34
-4 95 6 102 4 3 128 4 276 3 l268 -1 3 -66z m1185 64 c4 0 7 -29 7 -65 l0 -65
-280 0 -280 0 0 64 0 65 38 3 c27 2 465 1 515 -2z m1140 0 c4 0 7 -29 7 -65
l0 -65 -280 0 -280 0 0 64 c0 52 3 65 17 68 12 2 446 1 536 -2z m1173 -64 l2
-66 -279 0 -279 0 0 64 c0 52 3 65 17 68 9 2 134 2 277 1 l261 -2 1 -65z
m1162 65 c8 -1 12 -21 12 -66 l0 -65 -280 0 -280 0 0 64 c0 63 1 65 28 68 21
2 469 1 520 -1z m1130 0 c20 -1 22 -6 22 -66 l0 -65 -280 0 -280 0 0 63 c0 35
2 66 4 68 4 3 451 3 534 0z m1222 -63 l0 -68 -280 0 -280 0 0 64 c0 59 2 65
23 68 12 2 138 3 280 3 l257 0 0 -67z m1172 62 c3 0 8 -29 10 -65 l3 -65 -281
0 -281 0 0 64 0 65 31 3 c23 2 481 1 518 -2z m1126 1 c20 -1 22 -5 22 -66 l0
-65 -280 0 -280 0 0 65 0 64 73 3 c59 2 381 2 465 -1z m1170 0 l32 -1 0 -65 0
-65 -280 0 -280 0 0 64 0 65 33 3 c26 2 373 2 495 -1z m1172 0 c24 -1 26 -4
23 -48 -1 -27 -2 -56 -2 -65 -1 -17 -21 -18 -278 -18 l-278 0 3 57 c2 32 4 63
6 68 3 8 296 11 526 6z m1155 -1 c9 0 10 -22 6 -107 l-1 -23 -277 0 -278 0 3
57 c2 32 4 63 6 68 3 8 346 11 541 5z m1173 1 c20 -1 22 -6 22 -66 l0 -65
-280 0 -280 0 0 63 c0 35 2 66 4 68 4 3 461 4 534 0z m240 -1787 l-3 -55
-7400 0 c-4070 0 -7439 1 -7487 1 l-88 0 0 55 0 55 7490 0 7491 0 -3 -56z"/>
</g>
</svg>
