<?xml version="1.0" standalone="no"?>
<!DOCTYPE svg PUBLIC "-//W3C//DTD SVG 20010904//EN"
 "http://www.w3.org/TR/2001/REC-SVG-20010904/DTD/svg10.dtd">
<svg version="1.0" xmlns="http://www.w3.org/2000/svg"
 width="900.000000pt" height="520.000000pt" viewBox="0 0 900.000000 520.000000"
 preserveAspectRatio="xMidYMid meet">

<g transform="translate(0.000000,520.000000) scale(0.100000,-0.100000)"
fill="#000000" stroke="none">
<path d="M5580 5186 c-231 -49 -432 -210 -525 -421 -28 -63 -46 -131 -150
-575 -42 -179 -78 -332 -81 -341 -3 -13 -25 -17 -108 -22 -890 -55 -1688 -587
-2097 -1399 -94 -188 -209 -534 -209 -632 0 -54 87 -88 124 -47 9 10 33 78 52
151 68 259 170 490 312 705 109 166 286 377 363 434 l28 21 41 -35 c49 -41 98
-47 130 -15 33 33 26 77 -17 118 l-37 35 33 28 c19 15 68 51 109 79 l75 50 33
-49 c46 -69 92 -81 134 -36 27 29 24 78 -9 124 -12 16 -21 32 -21 36 0 7 203
105 218 105 5 0 19 -28 33 -62 28 -73 60 -98 106 -83 15 6 34 22 42 37 14 24
14 33 -7 94 -16 50 -18 70 -10 75 15 9 240 69 259 69 9 0 26 -32 45 -87 36
-101 66 -133 110 -117 15 5 36 21 47 36 l20 27 -26 82 c-14 46 -25 85 -23 86
4 5 188 23 231 23 39 0 42 -3 120 -101 99 -128 111 -139 151 -139 37 0 74 38
74 76 0 13 -37 69 -92 140 -51 64 -92 124 -90 133 14 76 197 831 211 873 79
228 295 381 541 381 114 0 82 9 703 -195 l488 -161 -3 -76 -3 -76 -526 -5
c-500 -5 -528 -6 -548 -24 -31 -28 -28 -79 5 -105 24 -19 41 -21 153 -21 l126
0 104 -113 c57 -61 115 -120 130 -129 23 -16 54 -18 264 -18 131 0 237 -4 235
-9 -1 -4 -19 -45 -38 -90 l-35 -81 -553 0 -553 0 -49 103 c-104 218 -130 482
-70 716 23 91 18 131 -21 151 -58 32 -100 -5 -127 -112 -71 -284 -41 -568 88
-835 32 -68 70 -134 84 -148 24 -23 31 -25 128 -25 l103 0 -2 -392 c-3 -448
-13 -596 -49 -729 -29 -112 -113 -287 -183 -384 -56 -77 -61 -99 -30 -139 28
-36 77 -36 113 0 63 64 170 254 219 390 27 76 65 244 69 309 l3 40 88 3 87 3
0 -55 c0 -70 29 -109 80 -109 58 0 70 27 70 157 0 105 -2 114 -23 134 -22 20
-33 22 -160 22 l-137 0 0 128 c0 70 3 238 7 375 l6 247 442 0 c407 0 444 1
464 18 28 23 172 348 174 391 1 24 -6 39 -22 52 -21 18 -45 19 -311 19 l-287
0 -49 53 -49 52 350 5 c193 3 351 7 352 8 1 1 10 16 18 33 13 25 16 60 13 193
-2 117 -7 167 -16 179 -13 15 -1023 354 -1142 383 -85 21 -245 26 -320 10z"/>
<path d="M5980 4897 c-48 -24 -52 -104 -7 -128 12 -7 47 -18 78 -24 86 -18
129 5 129 69 0 50 -25 65 -155 91 -11 2 -31 -1 -45 -8z"/>
<path d="M5464 3346 c-22 -16 -233 -287 -265 -341 -16 -26 -17 -38 -9 -60 19
-50 34 -54 176 -55 l132 0 4 -60 c5 -72 29 -103 78 -103 53 0 73 30 78 122 5
96 -3 146 -29 172 -16 16 -33 19 -114 19 -52 0 -95 2 -95 5 0 3 36 53 80 111
87 114 95 140 55 179 -27 28 -61 32 -91 11z"/>
<path d="M3384 2537 c-108 -74 -206 -225 -245 -375 -35 -139 -18 -326 41 -442
l21 -41 -31 -116 c-135 -505 -456 -927 -918 -1207 -7 -4 14 43 47 106 143 273
195 489 212 877 8 204 7 237 -6 257 -17 27 -53 39 -85 29 -45 -14 -51 -41 -61
-272 -13 -312 -41 -462 -124 -668 -49 -121 -100 -214 -207 -377 -79 -120 -89
-141 -83 -168 8 -37 55 -65 94 -55 14 3 85 35 156 70 350 170 657 447 868 783
101 161 169 313 253 571 3 9 15 3 42 -20 20 -19 61 -49 90 -68 28 -18 52 -37
52 -41 0 -4 -43 -40 -96 -80 -99 -74 -144 -126 -178 -208 -19 -44 -20 -69 -21
-402 l0 -355 26 -56 c36 -76 90 -133 157 -166 l57 -28 272 -3 272 -3 27 26
c24 24 26 32 21 80 -14 141 -121 253 -259 273 l-53 7 -3 157 c-3 178 -14 156
90 178 74 16 151 48 216 90 l60 39 4 -302 c3 -290 4 -304 26 -353 29 -64 102
-136 167 -166 47 -22 64 -23 309 -26 142 -2 269 -1 282 2 81 21 57 191 -42
288 -47 48 -113 80 -175 86 l-49 5 0 158 0 159 28 5 c138 29 206 56 301 120
131 86 233 222 287 380 26 76 28 92 32 302 l4 222 97 66 c121 81 142 116 100
169 -34 43 -68 35 -180 -40 -116 -78 -237 -133 -374 -170 -91 -25 -120 -28
-317 -32 l-218 -4 0 169 c0 154 -2 171 -19 187 -27 25 -78 24 -104 -3 -22 -21
-22 -28 -28 -394 -4 -259 -9 -384 -18 -412 -44 -136 -153 -272 -272 -338 -73
-41 -198 -77 -266 -77 -33 0 -50 -6 -68 -25 l-25 -24 0 -255 c0 -140 3 -262 6
-271 11 -28 60 -45 129 -45 37 0 76 -5 88 -11 29 -15 67 -50 67 -62 0 -5 -83
-7 -193 -5 -187 3 -195 4 -230 28 -20 13 -45 41 -56 61 -20 35 -21 52 -21 368
0 307 1 335 19 369 25 48 59 79 208 191 179 133 178 148 -14 273 -137 90 -192
144 -243 239 -85 159 -76 361 22 521 17 27 62 77 101 113 63 58 71 69 71 101
0 26 -7 42 -23 55 -33 27 -62 24 -117 -14z m1724 -969 c-4 -155 -7 -181 -31
-247 -78 -220 -271 -369 -502 -388 -51 -4 -76 -11 -92 -26 -23 -20 -23 -23
-23 -287 0 -319 -8 -300 128 -310 48 -3 94 -10 102 -15 25 -13 60 -48 60 -58
0 -5 -82 -7 -192 -5 -210 3 -236 10 -280 69 -33 44 -38 95 -38 439 l0 335 45
90 c64 125 85 213 85 356 l0 116 188 6 c215 8 341 26 456 66 44 15 85 29 90
30 4 0 6 -77 4 -171z"/>
</g>
</svg>
